<svg xmlns="http://www.w3.org/2000/svg" fill="none" viewBox="0 0 210 42" height="42" width="210">
<path fill="white" d="M53.072 10.4261H56.0298V12.1268C56.3155 11.7351 56.6483 11.38 57.0206 11.0694C57.3503 10.8018 57.7228 10.5918 58.1224 10.4483C58.5578 10.2996 59.0155 10.227 59.4755 10.2339C60.5601 10.2339 61.5263 10.4803 62.3741 10.9733C63.2443 11.4883 63.9793 12.2031 64.5185 13.0585C65.0903 12.1519 65.8051 11.4544 66.6629 10.9659C67.5206 10.4774 68.4819 10.2334 69.5467 10.2339C70.7791 10.2339 71.8833 10.5469 72.8594 11.1729C73.8348 11.7989 74.622 12.6781 75.1368 13.7166C75.6835 14.806 75.9624 16.0101 75.9502 17.2289V25.2148H72.9924V17.2289C73.0021 16.5261 72.8583 15.8296 72.571 15.1881C72.3099 14.6015 71.893 14.0977 71.3657 13.7314C70.8297 13.3678 70.1942 13.1792 69.5467 13.1916C68.8951 13.1833 68.2561 13.3714 67.7129 13.7314C67.1665 14.0958 66.7294 14.6019 66.4484 15.1955C66.1436 15.8296 65.9893 16.5254 65.9974 17.2289V25.2148H63.0396V17.2289C63.0474 16.5246 62.8904 15.8283 62.5812 15.1955C62.2954 14.6027 61.8563 14.0973 61.3094 13.7314C60.7661 13.3715 60.1271 13.1834 59.4755 13.1916C58.8428 13.1858 58.2252 13.3856 57.7157 13.761C57.181 14.1552 56.7559 14.6795 56.4808 15.2842C56.1769 15.9343 56.0228 16.6444 56.0298 17.362V25.2148H53.072V10.4261ZM93.5089 10.4261V25.2148H90.5511V22.9669C90.0631 23.7614 89.3878 24.4241 88.5842 24.8969C87.7866 25.3647 86.8746 25.5989 85.8483 25.5993C84.4781 25.61 83.1308 25.247 81.9515 24.5493C80.7792 23.8651 79.8036 22.8896 79.1194 21.7173C78.4316 20.5298 78.0694 19.1817 78.0694 17.8094C78.0694 16.437 78.4316 15.089 79.1194 13.9015C79.8023 12.7263 80.778 11.748 81.9515 11.062C83.1309 10.3645 84.4781 10.0015 85.8483 10.012C86.8736 10.012 87.7856 10.2462 88.5842 10.7145C89.3875 11.1877 90.0627 11.8503 90.5511 12.6444V10.4261H93.5089ZM85.8779 22.7451C86.746 22.7451 87.515 22.5233 88.1849 22.0796C88.8556 21.6363 89.3947 21.0208 89.7459 20.2976C90.1217 19.5266 90.3117 18.6782 90.3004 17.8205C90.312 16.9556 90.1222 16.0999 89.7459 15.3212C89.3972 14.5963 88.8575 13.9803 88.1849 13.5391C87.515 13.1004 86.746 12.881 85.8779 12.881C85.0328 12.8749 84.2029 13.1054 83.4821 13.5465C82.7504 13.9931 82.1466 14.6214 81.7294 15.3703C81.3122 16.1192 81.0957 16.9632 81.1011 17.8205C81.0932 18.6871 81.3179 19.54 81.7518 20.2902C82.1732 21.0268 82.7766 21.6429 83.5043 22.0796C84.2184 22.5173 85.0403 22.7475 85.8779 22.7444V22.7451ZM98.7152 8.32536C98.4401 8.32827 98.1693 8.25673 97.9314 8.11832C97.6957 7.98108 97.4997 7.78486 97.3628 7.54896C97.2212 7.31478 97.1468 7.04618 97.1476 6.77255C97.1457 6.49411 97.2201 6.22046 97.3628 5.98135C97.5014 5.74476 97.6968 5.54651 97.9314 5.40459C98.1678 5.26191 98.4391 5.18767 98.7152 5.19015C98.9938 5.18823 99.2676 5.26238 99.5072 5.40459C99.7449 5.54484 99.9416 5.74496 100.078 5.98499C100.214 6.22501 100.285 6.49656 100.284 6.77255C100.284 7.04521 100.213 7.3132 100.076 7.54896C99.9418 7.7871 99.7451 7.984 99.5072 8.11832C99.2662 8.25626 98.9929 8.32771 98.7152 8.32536V8.32536ZM100.165 10.4254V25.2148H97.2068V10.4261L100.165 10.4254ZM103.861 3.03174H106.805V25.2H103.861V3.03174ZM122.627 25.5986C121.318 25.6075 120.033 25.2433 118.923 24.5486C117.797 23.852 116.869 22.8765 116.231 21.7166C115.576 20.5182 115.233 19.1743 115.233 17.8086C115.233 16.4429 115.576 15.0991 116.231 13.9007C116.868 12.7378 117.795 11.7596 118.923 11.0613C120.036 10.3748 121.319 10.0113 122.627 10.0113C123.935 10.0113 125.218 10.3748 126.332 11.0613C127.459 11.7596 128.386 12.7378 129.023 13.9007C129.678 15.0991 130.021 16.4429 130.021 17.8086C130.021 19.1743 129.678 20.5182 129.023 21.7166C128.385 22.8765 127.458 23.852 126.332 24.5486C125.222 25.2433 123.937 25.6075 122.627 25.5986V25.5986ZM122.627 22.6409C123.423 22.6479 124.202 22.4189 124.868 21.9828C125.546 21.5414 126.098 20.9327 126.472 20.2155C126.862 19.4729 127.065 18.6465 127.064 17.8077C127.062 16.969 126.857 16.1432 126.465 15.4018C126.087 14.6809 125.529 14.0697 124.845 13.6271C124.18 13.1963 123.404 12.9678 122.611 12.9691C121.819 12.9704 121.043 13.2015 120.379 13.6345C119.699 14.079 119.146 14.6932 118.775 15.4166C118.386 16.1576 118.185 16.9829 118.191 17.8197C118.181 18.6692 118.39 19.5069 118.797 20.2525C119.18 20.9644 119.74 21.5655 120.424 21.9975C121.081 22.4197 121.846 22.6431 122.627 22.6409V22.6409ZM146.392 25.2148H143.434V17.4944C143.441 16.6894 143.259 15.894 142.902 15.1725C142.569 14.488 142.058 13.9057 141.423 13.4866C140.805 13.0765 140.079 12.8602 139.337 12.8655C138.611 12.8555 137.9 13.0726 137.303 13.4866C136.698 13.9115 136.218 14.4913 135.914 15.1652C135.578 15.8952 135.409 16.6908 135.418 17.4944V25.2148H132.46V10.4261H135.418V12.4817C135.912 11.7396 136.567 11.1179 137.334 10.6627C138.081 10.2284 138.932 10.0036 139.796 10.012C141.087 10.012 142.231 10.3448 143.226 11.0103C144.229 11.6833 145.029 12.6162 145.542 13.7092C146.095 14.8739 146.386 16.1463 146.392 17.436V25.2148ZM169.744 10.4261V25.2148H166.786V22.9669C166.298 23.7612 165.623 24.4239 164.819 24.8969C164.021 25.3647 163.109 25.5989 162.083 25.5993C160.713 25.6102 159.366 25.2472 158.187 24.5493C157.014 23.8655 156.038 22.8899 155.355 21.7173C154.667 20.5298 154.305 19.1817 154.305 17.8094C154.305 16.437 154.667 15.089 155.355 13.9015C156.037 12.7259 157.013 11.7476 158.187 11.062C159.366 10.3645 160.713 10.0015 162.083 10.012C163.108 10.012 164.02 10.2462 164.819 10.7145C165.622 11.1879 166.298 11.8504 166.786 12.6444V10.4261H169.744ZM162.113 22.7451C162.981 22.7451 163.75 22.5233 164.42 22.0796C165.09 21.636 165.629 21.0206 165.98 20.2976C166.356 19.5266 166.546 18.6782 166.535 17.8205C166.546 16.9556 166.357 16.0999 165.98 15.3212C165.632 14.5965 165.092 13.9805 164.42 13.5391C163.75 13.1004 162.981 12.881 162.113 12.881C161.268 12.8747 160.438 13.1052 159.717 13.5465C158.986 13.9931 158.382 14.6214 157.965 15.3703C157.547 16.1192 157.331 16.9632 157.336 17.8205C157.328 18.6871 157.553 19.5401 157.987 20.2902C158.408 21.0271 159.011 21.6434 159.739 22.0796C160.454 22.5173 161.275 22.7475 162.113 22.7444V22.7451ZM189.233 8.32536C188.958 8.32838 188.687 8.25684 188.45 8.11832C188.213 7.98132 188.017 7.78506 187.88 7.54896C187.739 7.31472 187.665 7.04612 187.666 6.77255C187.664 6.49417 187.738 6.22052 187.88 5.98135C188.019 5.74455 188.215 5.54626 188.45 5.40459C188.686 5.2618 188.957 5.18755 189.233 5.19015C189.512 5.18833 189.785 5.26247 190.025 5.40459C190.263 5.5445 190.46 5.74455 190.596 5.98465C190.732 6.22476 190.803 6.49647 190.801 6.77255C190.802 7.0451 190.73 7.313 190.594 7.54896C190.459 7.78697 190.263 7.98381 190.025 8.11832C189.784 8.25616 189.511 8.32761 189.233 8.32536V8.32536ZM190.683 10.4254V25.2148H187.725V10.4261L190.683 10.4254ZM208.561 3.03174V25.2148H205.603V22.9817C205.113 23.7682 204.441 24.4252 203.644 24.8969C202.85 25.3647 201.936 25.5989 200.9 25.5993C199.53 25.6102 198.183 25.2471 197.003 24.5493C195.831 23.8653 194.855 22.8897 194.171 21.7173C193.484 20.5324 193.121 19.1868 193.121 17.8168C193.121 16.4468 193.484 15.1011 194.171 13.9162C194.854 12.7409 195.83 11.7626 197.003 11.0768C198.183 10.3793 199.53 10.0163 200.9 10.0268C201.935 10.0268 202.85 10.261 203.644 10.7293C204.441 11.2014 205.113 11.8582 205.603 12.6444V3.03174H208.561ZM200.93 22.7451C201.797 22.7451 202.566 22.5258 203.237 22.087C203.91 21.6462 204.449 21.03 204.797 20.305C205.162 19.525 205.352 18.6743 205.352 17.8131C205.352 16.9518 205.162 16.1011 204.797 15.3212C204.449 14.5964 203.909 13.9803 203.237 13.5391C202.566 13.1004 201.797 12.881 200.93 12.881C200.087 12.8767 199.26 13.1072 198.541 13.5465C197.807 13.9922 197.201 14.6198 196.78 15.3687C196.36 16.1175 196.139 16.9621 196.141 17.8209C196.142 18.6798 196.365 19.5237 196.789 20.271C197.212 21.0183 197.821 21.6439 198.556 22.087C199.272 22.5206 200.093 22.748 200.93 22.7444V22.7451ZM49.9183 14.4553C49.3169 13.0997 48.4296 12.0201 47.2564 11.2166C46.0831 10.413 44.7571 10.0113 43.2782 10.0113C41.9687 10.0024 40.6837 10.3666 39.5736 11.0613C38.4464 11.7596 37.5192 12.7378 36.8821 13.9007C36.2271 15.0978 35.8838 16.4404 35.8838 17.8049C35.8838 19.1695 36.2271 20.5121 36.8821 21.7092C37.5192 22.8721 38.4464 23.8503 39.5736 24.5486C40.5334 25.1405 41.6212 25.4936 42.7456 25.5786C43.87 25.6635 44.9985 25.4776 46.0363 25.0366C46.9039 24.6651 47.6922 24.1304 48.3581 23.4616C49.0323 22.7879 49.5807 21.9991 49.9775 21.1324H46.4696C46.1595 21.5029 45.7908 21.8201 45.3782 22.0715C44.7471 22.4583 44.0183 22.6559 43.2782 22.6409C42.5838 22.6401 41.9004 22.4673 41.2891 22.138C40.6963 21.816 40.1912 21.354 39.8176 20.7923C39.4279 20.2077 39.1659 19.5476 39.0486 18.8549H50.5838C50.7416 17.278 50.5197 15.8114 49.9183 14.4553V14.4553ZM38.9599 16.5923C39.0623 15.8692 39.3278 15.1789 39.7363 14.5736C40.1288 13.9828 40.6559 13.4937 41.2743 13.1465C41.8874 12.8046 42.5782 12.6263 43.2801 12.6289C43.9821 12.6315 44.6715 12.8148 45.2821 13.1613C45.9055 13.5136 46.4374 14.0075 46.8349 14.6032C47.2396 15.1981 47.5004 15.8791 47.5965 16.5923H38.9599ZM183.299 20.4307L185.725 22.1314C184.403 24.2306 182.139 25.6149 179.57 25.6149C175.489 25.6149 172.183 22.1255 172.183 17.8212C172.183 13.5169 175.489 10.0275 179.57 10.0275C182.139 10.0275 184.402 11.411 185.725 13.5103L183.299 15.211C182.51 13.8734 181.135 12.9868 179.57 12.9868C177.124 12.9868 175.14 15.1518 175.14 17.8227C175.14 20.4935 177.124 22.6586 179.57 22.6586C181.135 22.6556 182.511 21.7691 183.299 20.4307Z"></path>
<path fill="#25A877" d="M27.7891 24.4014C26.0315 23.3936 22.0851 22.7096 21.4973 20.6259C21.061 19.0819 22.5946 17.8352 24.3071 18.0001C23.9019 17.3236 23.1632 17.3295 22.9628 16.2358C22.7107 13.5288 30.233 14.3658 28.9116 11.4236C27.9954 9.39088 23.6623 12.0344 21.7065 12.637C20.6713 12.9564 19.7729 11.8488 19.6095 10.3817C19.4512 8.95757 21.6459 5.56207 18.7813 6.1795C15.9781 6.78215 18.0138 10.6287 16.052 11.7423C14.7381 10.1555 14.6589 7.92384 14.3994 5.82679C14.1591 3.87542 14.1081 -0.122714 12.5286 0.354962C10.9492 0.832638 15.4775 8.79415 14.1672 11.6484C13.9336 12.1231 13.4603 11.6735 13.1505 11.3282C13.1719 11.8458 12.99 12.4056 12.2905 12.6592C9.66627 12.5742 8.13416 4.90841 4.65067 6.56475C4.17004 6.79398 3.51416 7.44616 3.55557 8.23588C3.75152 11.9996 11.0239 10.5466 10.8109 14.8309C10.663 15.6702 9.28842 16.2639 8.77303 16.4532C7.60694 16.8828 6.22123 17.0248 6.70704 17.0773C8.25542 17.7665 9.74539 17.8264 9.63225 20.0491C9.36902 22.7954 -0.128308 21.3017 0.849966 24.7815C1.81123 28.197 6.94958 22.7562 9.87109 22.3724C11.4298 22.1683 11.9326 22.527 12.1486 23.0756C13.1838 28.4144 7.83838 28.3818 7.38289 32.0716C7.32743 32.7903 7.35479 34.338 8.59852 34.3239C14.2774 34.2603 11.6894 26.2057 15.5914 23.9363C17.5139 22.8183 18.9928 23.7145 20.4717 24.6758C20.2299 23.8202 20.2328 23.0875 20.8991 22.6793C23.7777 22.4124 25.732 29.0384 28.7578 28.3264C30.9495 27.8125 29.2392 25.2333 27.7854 24.3992L27.7891 24.4014Z"></path>
<path fill="white" d="M185.014 38.7894L186.161 38.1239C186.388 38.5789 186.77 38.8064 187.307 38.8064C187.816 38.8064 188.125 38.5786 188.125 38.251C188.125 37.9235 187.689 37.8148 186.942 37.6595C185.914 37.4325 185.25 37.014 185.25 36.1407C185.25 35.2031 186.205 34.5576 187.27 34.5576C188.179 34.5576 188.807 34.803 189.362 35.4944L188.261 36.1237C188.051 35.7599 187.743 35.5869 187.287 35.5869C186.814 35.5869 186.559 35.7961 186.559 36.0778C186.559 36.4239 187.077 36.4964 187.779 36.6694C188.734 36.9149 189.47 37.2425 189.47 38.2074C189.47 39.199 188.497 39.8815 187.278 39.8815C186.269 39.8719 185.506 39.5902 185.014 38.7894V38.7894ZM190.173 39.7358V35.3051L191.465 34.559V39.7351L190.173 39.7358ZM192.365 39.7358V37.0154C192.365 35.6231 193.394 34.559 194.822 34.559C196.269 34.559 197.279 35.6963 197.279 37.0154V39.7358H195.969V37.1064C195.969 36.3056 195.477 35.8323 194.822 35.8323C194.103 35.8323 193.676 36.3418 193.676 37.1064V39.7358H192.365ZM197.979 37.2062C197.979 35.6534 199.098 34.559 200.663 34.559C201.636 34.559 202.512 35.0685 202.929 35.8508L201.809 36.5163C201.7 36.3024 201.533 36.1234 201.327 35.9997C201.121 35.8759 200.885 35.8123 200.645 35.8161C199.881 35.8161 199.298 36.3891 199.298 37.2077C199.298 38.0085 199.835 38.6178 200.645 38.6178C201.162 38.6178 201.619 38.3546 201.828 37.9176L202.947 38.5638C202.717 38.9652 202.384 39.2982 201.983 39.5283C201.581 39.7585 201.126 39.8776 200.663 39.8734C199.116 39.8719 197.979 38.762 197.979 37.2062ZM203.648 39.7358V33.1482L204.939 32.4021V34.9502C205.294 34.7078 205.711 34.5749 206.14 34.5679C207.569 34.5679 208.56 35.541 208.56 36.9881V39.7358H207.25V37.1064C207.25 36.3056 206.759 35.8323 206.104 35.8323C205.385 35.8323 204.957 36.3418 204.957 37.1064V39.7358H203.648ZM177.126 37.5064C177.126 38.8441 176.098 39.8904 174.833 39.8904C174.06 39.8904 173.486 39.5443 173.122 38.9986V39.7817H172.331V33.4484H173.122V36.0327C173.486 35.4774 174.06 35.141 174.833 35.141C176.098 35.1321 177.126 36.1688 177.126 37.5064ZM176.334 37.5064C176.332 37.1892 176.235 36.8798 176.057 36.6174C175.879 36.3549 175.627 36.1511 175.333 36.0317C175.039 35.9123 174.716 35.8827 174.405 35.9465C174.094 36.0103 173.81 36.1648 173.586 36.3904C173.363 36.6159 173.212 36.9025 173.152 37.214C173.091 37.5255 173.124 37.8478 173.247 38.1405C173.37 38.4331 173.576 38.6828 173.841 38.8582C174.105 39.0335 174.415 39.1267 174.733 39.1258C175.643 39.1258 176.334 38.4256 176.334 37.5064ZM181.884 35.2408L180.035 40.0471C179.653 41.0572 178.952 41.6391 178.024 41.5755V40.8361C178.634 40.8812 179.007 40.5085 179.243 39.917L179.325 39.744L177.351 35.2401H178.197L179.735 38.7894L181.036 35.2401L181.884 35.2408Z"></path>
</svg>
