<svg xmlns="http://www.w3.org/2000/svg" fill="none" viewBox="0 0 168 37" height="37" width="168">
<g clip-path="url(#clip0_48_91)">
<path fill="white" d="M0.151855 30.255V12.755C0.151855 11.3743 1.27115 10.255 2.65186 10.255H5.03054C5.42836 10.255 5.80991 10.4131 6.09121 10.6944L11.0483 15.6515C11.2436 15.8467 11.2436 16.1633 11.0483 16.3586L8.49256 18.9143C8.30241 19.1045 7.99586 19.1102 7.79876 18.9272L5.07197 16.3951C4.91201 16.2466 4.65186 16.36 4.65186 16.5783V26.395C4.65186 26.6186 4.92302 26.7298 5.07996 26.5704L20.7112 10.7024C20.9931 10.4162 21.3781 10.255 21.7798 10.255H24.1519C25.5326 10.255 26.6519 11.3743 26.6519 12.755V30.255C26.6519 31.6357 25.5326 32.755 24.1519 32.755H22.0232C21.6254 32.755 21.2438 32.597 20.9625 32.3157L16.0054 27.3586C15.8102 27.1633 15.8102 26.8467 16.0054 26.6515L18.5483 24.1086C18.7436 23.9133 19.0602 23.9133 19.2554 24.1086L21.7251 26.5782C21.8826 26.7357 22.1519 26.6242 22.1519 26.4015V16.6151C22.1519 16.3914 21.8807 16.2803 21.7238 16.4396L6.09251 32.3077C5.81061 32.5939 5.42566 32.755 5.02392 32.755H2.65186C1.27115 32.755 0.151855 31.6357 0.151855 30.255Z"></path>
<path fill="white" d="M16.725 32.3282L14.0054 29.6086C13.8101 29.4133 13.4935 29.4133 13.2983 29.6086L10.5786 32.3282C10.4211 32.4857 10.5327 32.755 10.7554 32.755H16.5483C16.771 32.755 16.8825 32.4857 16.725 32.3282Z"></path>
<path fill="white" d="M13.0483 13.4015L10.3286 10.6818C10.1711 10.5243 10.2827 10.255 10.5054 10.255H16.2983C16.521 10.255 16.6325 10.5243 16.475 10.6818L13.7554 13.4015C13.5601 13.5967 13.2435 13.5967 13.0483 13.4015Z"></path>
<path fill="white" d="M38.7798 32.75C37.7238 32.75 36.7998 32.64 36.0078 32.42C35.2158 32.222 34.3358 31.925 33.3678 31.529V27.206C35.1498 28.548 37.0198 29.219 38.9778 29.219C39.7258 29.219 40.2648 29.098 40.5948 28.856C40.9468 28.592 41.1228 28.24 41.1228 27.8C41.1228 27.294 40.8478 26.92 40.2978 26.678C39.7478 26.436 38.8678 26.172 37.6578 25.886C36.3818 25.622 35.3258 25.094 34.4898 24.302C33.6758 23.51 33.2688 22.355 33.2688 20.837C33.2688 19.539 33.5988 18.472 34.2588 17.636C34.9188 16.8 35.7438 16.195 36.7338 15.821C37.7458 15.425 38.7908 15.227 39.8688 15.227C41.1888 15.227 42.2558 15.348 43.0698 15.59C43.9058 15.81 44.7198 16.162 45.5118 16.646V20.507C44.3898 19.891 43.5208 19.451 42.9048 19.187C42.2888 18.923 41.5738 18.791 40.7598 18.791C39.9458 18.791 39.3408 18.923 38.9448 19.187C38.5488 19.429 38.3508 19.781 38.3508 20.243C38.3508 20.793 38.5708 21.2 39.0108 21.464C39.4508 21.706 40.1548 21.959 41.1228 22.223C42.2228 22.509 43.0918 22.795 43.7298 23.081C44.3678 23.345 44.9398 23.818 45.4458 24.5C45.9518 25.16 46.2048 26.095 46.2048 27.305C46.1608 29.197 45.4458 30.583 44.0598 31.463C42.6738 32.321 40.9138 32.75 38.7798 32.75ZM54.8318 14.996C60.0458 14.996 62.6198 18.395 62.5538 25.193H51.5318C51.9498 27.503 53.5008 28.658 56.1848 28.658C56.9988 28.658 57.7908 28.548 58.5608 28.328C59.3528 28.086 60.1888 27.778 61.0688 27.404V31.628C59.2648 32.376 57.2408 32.75 54.9968 32.75C53.3028 32.75 51.8178 32.409 50.5418 31.727C49.2657 31.023 48.2757 30.022 47.5717 28.724C46.8677 27.426 46.5157 25.897 46.5157 24.137C46.5157 21.233 47.2307 18.989 48.6607 17.405C50.1127 15.799 52.1698 14.996 54.8318 14.996ZM54.6338 18.758C52.8738 18.758 51.8288 19.858 51.4988 22.058H57.6698C57.5158 20.87 57.1968 20.023 56.7128 19.517C56.2508 19.011 55.5578 18.758 54.6338 18.758ZM63.6598 16.976C64.5178 16.514 65.8268 16.085 67.5868 15.689C69.3468 15.293 70.9198 15.095 72.3058 15.095C74.6598 15.095 76.4308 15.557 77.6188 16.481C78.8068 17.405 79.4008 18.923 79.4008 21.035V32.255H74.4838V22.025C74.4838 20.111 73.4058 19.154 71.2498 19.154C70.7658 19.154 70.2708 19.209 69.7648 19.319C69.2588 19.429 68.8628 19.561 68.5768 19.715V32.255H63.6598V16.976ZM97.2003 8.69299V27.899C97.2003 28.933 96.8373 29.813 96.1113 30.539C95.3853 31.265 94.4283 31.815 93.2403 32.189C92.0523 32.563 90.7873 32.75 89.4453 32.75C86.6073 32.75 84.4073 32.079 82.8453 30.737C81.3053 29.395 80.5353 27.074 80.5353 23.774C80.5353 21.002 81.2063 18.857 82.5483 17.339C83.9123 15.799 85.9033 15.029 88.5213 15.029C90.0833 15.029 91.3483 15.315 92.3163 15.887V8.69299H97.2003ZM92.3163 19.682C91.4363 19.22 90.5783 18.989 89.7423 18.989C88.2683 18.989 87.1903 19.363 86.5083 20.111C85.8263 20.859 85.4853 22.124 85.4853 23.906C85.4853 25.446 85.8043 26.623 86.4423 27.437C87.0803 28.229 88.1473 28.625 89.6433 28.625C90.4573 28.625 91.1063 28.515 91.5903 28.295C92.0743 28.075 92.3163 27.767 92.3163 27.371V19.682ZM116.749 15.557L109.786 32.255H104.869L97.9058 15.557H103.219L107.641 26.843L111.568 15.557H116.749ZM117.445 9.48499H122.527V13.28H117.445V9.48499ZM117.544 15.788H122.461L122.494 32.255H117.544V15.788ZM131.969 14.996C137.183 14.996 139.757 18.395 139.691 25.193H128.669C129.087 27.503 130.638 28.658 133.322 28.658C134.136 28.658 134.928 28.548 135.698 28.328C136.49 28.086 137.326 27.778 138.206 27.404V31.628C136.402 32.376 134.378 32.75 132.134 32.75C130.44 32.75 128.955 32.409 127.679 31.727C126.403 31.023 125.413 30.022 124.709 28.724C124.005 27.426 123.653 25.897 123.653 24.137C123.653 21.233 124.368 18.989 125.798 17.405C127.25 15.799 129.307 14.996 131.969 14.996ZM131.771 18.758C130.011 18.758 128.966 19.858 128.636 22.058H134.807C134.653 20.87 134.334 20.023 133.85 19.517C133.388 19.011 132.695 18.758 131.771 18.758ZM165.085 15.557L159.541 32.255H155.086L152.215 22.883L149.476 32.255H145.021L139.444 15.557H144.724L147.661 26.183L150.433 15.557H154.063L156.934 26.447L159.904 15.557H165.085Z"></path>
</g>
<defs>
<clipPath id="clip0_48_91">
<rect transform="translate(0.151855 0.255005)" fill="white" height="36.5" width="167.5"></rect>
</clipPath>
</defs>
</svg>
