<svg xmlns="http://www.w3.org/2000/svg" fill="none" viewBox="0 0 167 30" height="30" width="167">
<g clip-path="url(#clip0_46_180)">
<path fill="white" d="M4.92622 25.5932C6.1799 25.5932 7.38223 25.0951 8.26871 24.2086C9.1552 23.3222 9.65322 22.1198 9.65322 20.8662C9.65322 19.6125 9.1552 18.4101 8.26871 17.5237C7.38223 16.6372 6.1799 16.1392 4.92622 16.1392C3.67254 16.1392 2.47021 16.6372 1.58372 17.5237C0.69724 18.4101 0.199219 19.6125 0.199219 20.8662C0.199219 22.1198 0.69724 23.3222 1.58372 24.2086C2.47021 25.0951 3.67254 25.5932 4.92622 25.5932ZM12.7939 0.00500488L23.1687 16.0594C23.7711 16.9927 24.111 18.0711 24.1524 19.1812C24.1938 20.2913 23.9354 21.3921 23.4041 22.3677C22.8729 23.3433 22.0886 24.1578 21.1337 24.7254C20.1788 25.293 19.0885 25.5927 17.9777 25.5932L10.1593 13.941C9.19767 12.508 8.67674 10.8247 8.66076 9.09909C8.64479 7.37343 9.13447 5.68086 10.0694 4.23031L12.7939 0.00500488ZM103.736 10.097H99.4082V15.2373C99.4082 17.9401 101.814 17.7081 104.334 17.1107L104.699 21.3563C103.538 21.7884 101.796 22.0871 100.47 22.0871C96.8214 22.0871 94.1839 20.3282 94.1839 16.0841V10.0956H91.6464V5.834H94.1839V0.727105H99.2429V5.834H103.738V10.097H103.736ZM50.2619 21.755H55.321V5.834H50.2619L50.0966 7.50876C49.1831 6.39806 47.6418 5.50196 45.403 5.50196C41.1574 5.50196 38.0399 9.05155 38.0399 13.8105C38.0399 18.5708 41.1574 22.0871 45.403 22.0871C47.6418 22.0871 49.1846 21.2084 50.0966 20.0803L50.2619 21.755ZM43.2149 13.8105C43.2149 11.6543 44.6229 10.1463 46.6471 10.1463C48.6698 10.1623 50.0792 11.6543 50.0792 13.8105C50.0792 15.9666 48.6698 17.4761 46.6471 17.4761C44.6229 17.4761 43.2135 15.9681 43.2135 13.8105H43.2149ZM65.5493 8.00611C66.296 6.42996 67.8722 5.50196 69.7122 5.50196C70.3429 5.50196 70.9897 5.61796 71.6538 5.834L71.3377 10.3943C70.693 10.1663 70.0146 10.0487 69.3308 10.0463C67.3588 10.0463 65.6827 11.1236 65.6827 14.0918V21.755H60.4583V5.834H65.384L65.5493 8.00611ZM83.0754 5.50196C78.1497 5.50196 74.2696 8.3541 74.2696 13.8279C74.2696 18.7028 78.0511 22.0871 83.1435 22.0871C85.2316 22.0871 86.6743 21.655 88.5158 20.7763L88.0011 16.1986C86.509 16.912 85.4491 17.2934 83.7235 17.2934C81.3673 17.2934 79.4939 16.1 79.4939 13.7945C79.4939 11.1077 81.6167 10.2275 84.0049 10.2275C85.3475 10.2275 86.7744 10.5277 87.9343 11.0076L88.3171 6.56335C86.3596 5.75135 84.901 5.50196 83.0769 5.50196H83.0754ZM107.282 5.834L113.683 21.771C113.219 23.3964 112.009 24.2099 110.582 24.2099C109.94 24.1975 109.307 24.0503 108.726 23.7778L108.012 27.8914C109.078 28.4266 110.252 28.7103 111.445 28.7208C114.381 28.7208 116.934 27.2607 118.212 24.0939L125.592 5.834H119.755L116.47 16.4814L113.103 5.834H107.282ZM134.643 28.3888H129.419V5.834H134.329L134.494 7.50876C135.422 6.34876 136.915 5.50196 139.319 5.50196C143.814 5.50196 146.751 9.05156 146.751 13.8279C146.751 18.5694 143.814 22.0871 139.321 22.0871C137.346 22.0871 135.589 21.4897 134.643 20.5776V28.3888ZM134.576 13.7945C134.576 11.6543 136.019 10.1782 137.977 10.1782C139.984 10.1782 141.493 11.5891 141.493 13.7945C141.493 15.9173 139.968 17.4094 137.977 17.4094C136.019 17.4094 134.576 15.9159 134.576 13.7945ZM155.619 12.069H161.557C161.557 10.8249 160.511 9.64751 158.754 9.64751C156.83 9.64751 155.752 10.7597 155.619 12.069ZM165.902 20.6603L165.189 16.7453C164.177 17.2267 162.087 17.6747 159.98 17.6747C157.842 17.6747 155.868 16.9787 155.603 15.1372H166.217C167.378 8.53681 163.281 5.50196 158.671 5.50196C153.977 5.50196 150.511 8.78621 150.511 13.7945C150.511 18.8028 154.044 22.0871 159.947 22.0871C162.386 22.0871 164.658 21.3737 165.902 20.6603Z" clip-rule="evenodd" fill-rule="evenodd"></path>
</g>
<defs>
<clipPath id="clip0_46_180">
<rect transform="translate(0.199219 0.00500488)" fill="white" height="29" width="166.75"></rect>
</clipPath>
</defs>
</svg>
